<svg width="203" height="1208" viewBox="0 0 203 1208" fill="none" xmlns="http://www.w3.org/2000/svg">
<g opacity="0.66">
<path d="M-22.3491 818.769C98.8157 608.905 26.9111 340.553 -182.953 219.388C-392.816 98.2235 -661.168 170.128 -782.333 379.992" stroke="#86FAF3" stroke-width="5" stroke-linecap="round"/>
<ellipse cx="-402" cy="599.5" rx="462" ry="462.5" stroke="#86FAF3" stroke-width="5" stroke-linecap="round"/>
<path d="M20 600C20 366.936 -168.936 178 -402 178C-635.064 178 -824 366.936 -824 600" stroke="#7B8085" stroke-opacity="0.5" stroke-width="5" stroke-linecap="round"/>
<path d="M20 600C20 366.936 -168.936 178 -402 178C-635.064 178 -824 366.936 -824 600" stroke="#7B8085" stroke-opacity="0.5" stroke-width="5" stroke-linecap="round"/>
<path d="M-496.75 272.517C-316.228 220.491 -127.71 324.657 -75.6835 505.178C-23.6568 685.7 -127.823 874.218 -308.345 926.245" stroke="#86A0FA" stroke-width="5" stroke-linecap="round"/>
<path d="M-197.857 193.271C23.3773 304.78 111.089 576.978 -1.94681 801.242C-114.983 1025.51 -385.962 1116.91 -607.196 1005.41" stroke="#354389" stroke-width="5" stroke-linecap="round"/>
</g>
</svg>
