<svg width="174" height="1208" viewBox="0 0 174 1208" fill="none" xmlns="http://www.w3.org/2000/svg">
<path d="M253.6 699.477C198.333 512.294 305.273 315.751 492.455 260.484" stroke="#86FAF3" stroke-width="5" stroke-linecap="round"/>
<path d="M914.08 784.954C811.591 962.47 584.602 1023.29 407.086 920.802C229.569 818.313 168.748 591.324 271.237 413.808" stroke="#86FAF3" stroke-width="5" stroke-linecap="round"/>
<path d="M775.107 908.675C604.288 1009.44 384.128 952.648 283.364 781.829C182.601 611.011 239.392 390.85 410.21 290.087" stroke="#7B8085" stroke-opacity="0.5" stroke-width="5" stroke-linecap="round"/>
<path d="M946.341 838.358C814.357 1033.69 549.015 1085.05 353.682 953.062C158.349 821.079 106.994 555.736 238.977 360.403" stroke="#86A0FA" stroke-width="5" stroke-linecap="round"/>
<ellipse cx="593" cy="599.5" rx="462" ry="462.5" stroke="#86FAF3" stroke-width="5" stroke-linecap="round"/>
<path d="M593 1072C331.769 1072 120 860.455 120 599.5C120 338.545 331.769 127 593 127" stroke="#86A0FA" stroke-width="5" stroke-linecap="round"/>
<path d="M1015 600C1015 366.936 826.064 178 593 178C359.936 178 171 366.936 171 600" stroke="#7B8085" stroke-opacity="0.5" stroke-width="5" stroke-linecap="round"/>
<path d="M1015 600C1015 366.936 826.064 178 593 178C359.936 178 171 366.936 171 600" stroke="#7B8085" stroke-opacity="0.5" stroke-width="5" stroke-linecap="round"/>
</svg>
