<svg width="197" height="21" viewBox="0 0 197 21" fill="none" xmlns="http://www.w3.org/2000/svg">
<path d="M12.0254 14.5361L14.4644 14.5098C14.2007 15.8281 13.7041 16.9707 12.9746 17.9375C12.2539 18.9043 11.3442 19.647 10.2456 20.1655C9.15576 20.6841 7.93408 20.9258 6.58057 20.8906C5.36768 20.8643 4.34814 20.5874 3.52197 20.0601C2.70459 19.5327 2.06299 18.8384 1.59717 17.9771C1.14014 17.1157 0.836914 16.1665 0.6875 15.1294C0.546875 14.0923 0.546875 13.0464 0.6875 11.9917L0.964355 10.0801C1.14014 8.91992 1.45654 7.80371 1.91357 6.73145C2.37939 5.65039 2.98145 4.68799 3.71973 3.84424C4.4668 3.00049 5.3457 2.33691 6.35645 1.85352C7.37598 1.37012 8.53174 1.1416 9.82373 1.16797C11.1157 1.19434 12.1968 1.48438 13.0669 2.03809C13.937 2.5918 14.5962 3.34766 15.0444 4.30566C15.5015 5.26367 15.7476 6.3623 15.7827 7.60156H13.3306C13.3042 6.79297 13.1768 6.06348 12.9482 5.41309C12.7197 4.7627 12.3462 4.24414 11.8276 3.85742C11.3091 3.4707 10.606 3.26416 9.71826 3.23779C8.75146 3.21143 7.90332 3.3916 7.17383 3.77832C6.45312 4.16504 5.83789 4.69238 5.32812 5.36035C4.81836 6.01953 4.40967 6.75781 4.10205 7.5752C3.79443 8.39258 3.57471 9.21875 3.44287 10.0537L3.15283 12.0049C3.05615 12.6992 3.021 13.4375 3.04736 14.2197C3.07373 14.9932 3.20117 15.7271 3.42969 16.4214C3.66699 17.1069 4.04492 17.6738 4.56348 18.1221C5.09082 18.5615 5.80273 18.7944 6.69922 18.8208C7.68359 18.856 8.52295 18.7021 9.21729 18.3594C9.91162 18.0166 10.4873 17.52 10.9443 16.8696C11.4014 16.2104 11.7617 15.4326 12.0254 14.5361ZM18.4511 13.7319L18.4906 13.4287C18.5961 12.4707 18.8334 11.5479 19.2025 10.6602C19.5805 9.77246 20.0771 8.98145 20.6923 8.28711C21.3075 7.59277 22.037 7.04785 22.8808 6.65234C23.7245 6.25684 24.6649 6.07227 25.7021 6.09863C26.704 6.11621 27.5609 6.33154 28.2729 6.74463C28.9936 7.15771 29.5736 7.70703 30.0131 8.39258C30.4613 9.06934 30.7733 9.83398 30.9491 10.6865C31.1249 11.5391 31.1688 12.418 31.081 13.3232L31.0546 13.6265C30.9403 14.5845 30.6942 15.5029 30.3163 16.3818C29.9384 17.2607 29.4374 18.043 28.8134 18.7285C28.1981 19.4141 27.4687 19.9546 26.6249 20.3501C25.7812 20.7368 24.8451 20.917 23.8168 20.8906C22.8236 20.873 21.9667 20.6621 21.246 20.2578C20.5341 19.8447 19.9584 19.2998 19.5189 18.623C19.0795 17.9463 18.7719 17.186 18.5961 16.3423C18.4203 15.4985 18.372 14.6284 18.4511 13.7319ZM20.8637 13.4287L20.8373 13.7451C20.7758 14.2988 20.7714 14.8745 20.8241 15.4722C20.8856 16.0698 21.0263 16.6235 21.246 17.1333C21.4745 17.6431 21.8041 18.0605 22.2348 18.3857C22.6654 18.7109 23.2235 18.8823 23.9091 18.8999C24.6386 18.9175 25.2802 18.7769 25.8339 18.478C26.3876 18.1704 26.8578 17.7573 27.2445 17.2388C27.64 16.7202 27.9521 16.1445 28.1806 15.5117C28.4179 14.8789 28.5761 14.2505 28.6552 13.6265L28.6815 13.3232C28.7431 12.7695 28.7431 12.1938 28.6815 11.5962C28.6288 10.9897 28.4882 10.4272 28.2597 9.90869C28.0399 9.38135 27.7147 8.95508 27.2841 8.62988C26.8534 8.2959 26.2953 8.12012 25.6098 8.10254C24.8803 8.07617 24.2343 8.22119 23.6718 8.5376C23.1181 8.84521 22.6479 9.2627 22.2611 9.79004C21.8744 10.3174 21.5624 10.9019 21.3251 11.5435C21.0966 12.1763 20.9428 12.8047 20.8637 13.4287ZM38.4427 9.55273L36.5179 20.627H34.1316L36.6102 6.3623H38.8646L38.4427 9.55273ZM37.3353 12.9541L36.3597 12.9277C36.4827 12.0752 36.7068 11.2402 37.032 10.4229C37.366 9.59668 37.8011 8.854 38.3372 8.19482C38.8821 7.53564 39.5281 7.01709 40.2752 6.63916C41.0311 6.25244 41.8924 6.07227 42.8592 6.09863C43.6238 6.11621 44.261 6.26562 44.7708 6.54688C45.2894 6.81934 45.6937 7.19287 45.9837 7.66748C46.2737 8.14209 46.4671 8.69141 46.5638 9.31543C46.6604 9.93066 46.6692 10.5854 46.5901 11.2798L45.0345 20.627H42.6351L44.2171 11.2402C44.2786 10.6689 44.2566 10.1548 44.1512 9.69775C44.0545 9.23193 43.8348 8.86279 43.492 8.59033C43.158 8.30908 42.6746 8.15967 42.0418 8.14209C41.3738 8.12451 40.7718 8.25195 40.2356 8.52441C39.6995 8.79688 39.2293 9.17041 38.825 9.64502C38.4295 10.1108 38.1043 10.6338 37.8494 11.2139C37.6033 11.7852 37.4319 12.3652 37.3353 12.9541ZM54.2683 9.55273L52.3435 20.627H49.9572L52.4357 6.3623H54.6901L54.2683 9.55273ZM53.1608 12.9541L52.1853 12.9277C52.3083 12.0752 52.5324 11.2402 52.8576 10.4229C53.1916 9.59668 53.6267 8.854 54.1628 8.19482C54.7077 7.53564 55.3537 7.01709 56.1008 6.63916C56.8566 6.25244 57.718 6.07227 58.6848 6.09863C59.4494 6.11621 60.0866 6.26562 60.5964 6.54688C61.1149 6.81934 61.5192 7.19287 61.8093 7.66748C62.0993 8.14209 62.2927 8.69141 62.3894 9.31543C62.486 9.93066 62.4948 10.5854 62.4157 11.2798L60.8601 20.627H58.4606L60.0427 11.2402C60.1042 10.6689 60.0822 10.1548 59.9768 9.69775C59.8801 9.23193 59.6604 8.86279 59.3176 8.59033C58.9836 8.30908 58.5002 8.15967 57.8674 8.14209C57.1994 8.12451 56.5974 8.25195 56.0612 8.52441C55.5251 8.79688 55.0549 9.17041 54.6506 9.64502C54.2551 10.1108 53.9299 10.6338 53.675 11.2139C53.4289 11.7852 53.2575 12.3652 53.1608 12.9541ZM71.8209 20.8906C70.8453 20.873 69.9972 20.6797 69.2765 20.3105C68.5646 19.9326 67.9801 19.4272 67.523 18.7944C67.0748 18.1528 66.754 17.4233 66.5606 16.606C66.3673 15.7886 66.3102 14.9316 66.3893 14.0352L66.442 13.4683C66.5299 12.5542 66.754 11.6577 67.1144 10.7788C67.4747 9.89111 67.9537 9.09131 68.5514 8.37939C69.1578 7.66748 69.8697 7.10498 70.6871 6.69189C71.5133 6.27002 72.4273 6.07227 73.4293 6.09863C74.4225 6.11621 75.2486 6.32715 75.9078 6.73145C76.567 7.13574 77.0812 7.67188 77.4503 8.33984C77.8282 8.99902 78.0743 9.7417 78.1886 10.5679C78.3028 11.3853 78.3116 12.2246 78.2149 13.0859L78.0699 14.1802H67.7208L68.0372 12.1895L75.9342 12.2026L75.9737 11.9917C76.0616 11.3589 76.0265 10.748 75.8683 10.1592C75.7101 9.57031 75.42 9.08691 74.9981 8.70898C74.5851 8.32227 74.027 8.12012 73.3238 8.10254C72.5943 8.07617 71.9615 8.22559 71.4254 8.55078C70.8893 8.86719 70.441 9.29785 70.0807 9.84277C69.7203 10.3789 69.4347 10.9678 69.2237 11.6094C69.0216 12.2422 68.881 12.8618 68.8019 13.4683L68.7491 14.022C68.6964 14.5845 68.714 15.1514 68.8019 15.7227C68.8897 16.2939 69.0567 16.8169 69.3028 17.2915C69.5577 17.7573 69.9093 18.1396 70.3575 18.4385C70.8058 18.7285 71.3595 18.8823 72.0187 18.8999C72.8185 18.9175 73.5348 18.7461 74.1676 18.3857C74.8092 18.0166 75.3937 17.5508 75.921 16.9883L77.2789 18.1484C76.8658 18.7549 76.3736 19.2646 75.8023 19.6777C75.2311 20.0908 74.607 20.3984 73.9303 20.6006C73.2535 20.8027 72.5504 20.8994 71.8209 20.8906ZM86.9741 18.8999C87.5542 18.9087 88.0947 18.7988 88.5957 18.5703C89.0967 18.3418 89.5229 18.0166 89.8745 17.5947C90.2261 17.1729 90.4766 16.6851 90.626 16.1313L92.8936 16.1182C92.7529 17.0762 92.3794 17.9155 91.7729 18.6362C91.1753 19.3569 90.4414 19.9194 89.5713 20.3237C88.71 20.7192 87.8091 20.9082 86.8687 20.8906C85.8667 20.873 85.0142 20.6665 84.311 20.271C83.6167 19.8667 83.0586 19.3306 82.6367 18.6626C82.2148 17.9946 81.9248 17.2432 81.7666 16.4082C81.6084 15.5645 81.5732 14.6987 81.6611 13.811L81.7139 13.2441C81.8193 12.2861 82.0522 11.3765 82.4126 10.5151C82.7729 9.64502 83.252 8.87598 83.8496 8.20801C84.4561 7.53125 85.1724 7.00391 85.9985 6.62598C86.8247 6.24805 87.752 6.07227 88.7803 6.09863C89.7822 6.11621 90.6523 6.35352 91.3906 6.81055C92.1289 7.25879 92.7002 7.86963 93.1045 8.64307C93.5088 9.4165 93.7109 10.2954 93.7109 11.2798L91.4697 11.2666C91.4609 10.7041 91.3511 10.1855 91.1401 9.71094C90.9292 9.23633 90.6172 8.854 90.2041 8.56396C89.791 8.27393 89.2812 8.11572 88.6748 8.08936C87.9453 8.07178 87.3081 8.20801 86.7632 8.49805C86.2271 8.78809 85.77 9.18799 85.3921 9.69775C85.0229 10.1987 84.7285 10.7568 84.5088 11.3721C84.2979 11.9873 84.1528 12.6113 84.0737 13.2441L84.0078 13.7979C83.9551 14.3604 83.9463 14.936 83.9814 15.5249C84.0254 16.1138 84.1484 16.6631 84.3506 17.1729C84.5527 17.6738 84.8647 18.0825 85.2866 18.3989C85.7085 18.7153 86.271 18.8823 86.9741 18.8999ZM104.382 6.3623L104.052 8.23438H96.5507L96.8803 6.3623H104.382ZM100.018 2.89502H102.391L99.9784 17.1201C99.952 17.4277 99.9608 17.7046 100.005 17.9507C100.049 18.1968 100.154 18.3945 100.321 18.5439C100.488 18.6846 100.743 18.7593 101.086 18.7681C101.279 18.7681 101.468 18.7549 101.653 18.7285C101.846 18.6934 102.039 18.6626 102.233 18.6362L102.061 20.6401C101.78 20.7192 101.49 20.7764 101.191 20.8115C100.901 20.8555 100.611 20.873 100.321 20.8643C99.5917 20.8555 99.0204 20.6709 98.6073 20.3105C98.1942 19.9502 97.913 19.4844 97.7636 18.9131C97.6142 18.3418 97.5702 17.731 97.6317 17.0806L100.018 2.89502ZM111.071 6.3623L108.593 20.627H106.206L108.685 6.3623H111.071ZM109.159 2.61816C109.159 2.20508 109.287 1.8623 109.542 1.58984C109.805 1.30859 110.144 1.16357 110.557 1.15479C110.97 1.146 111.308 1.27344 111.572 1.53711C111.845 1.80078 111.976 2.13477 111.968 2.53906C111.968 2.94336 111.831 3.28174 111.559 3.5542C111.295 3.81787 110.961 3.9541 110.557 3.96289C110.153 3.97168 109.819 3.85303 109.555 3.60693C109.291 3.35205 109.159 3.02246 109.159 2.61816ZM118.05 9.55273L116.126 20.627H113.739L116.218 6.3623H118.472L118.05 9.55273ZM116.943 12.9541L115.967 12.9277C116.091 12.0752 116.315 11.2402 116.64 10.4229C116.974 9.59668 117.409 8.854 117.945 8.19482C118.49 7.53564 119.136 7.01709 119.883 6.63916C120.639 6.25244 121.5 6.07227 122.467 6.09863C123.232 6.11621 123.869 6.26562 124.379 6.54688C124.897 6.81934 125.301 7.19287 125.592 7.66748C125.882 8.14209 126.075 8.69141 126.172 9.31543C126.268 9.93066 126.277 10.5854 126.198 11.2798L124.642 20.627H122.243L123.825 11.2402C123.886 10.6689 123.864 10.1548 123.759 9.69775C123.662 9.23193 123.443 8.86279 123.1 8.59033C122.766 8.30908 122.282 8.15967 121.65 8.14209C120.982 8.12451 120.38 8.25195 119.843 8.52441C119.307 8.79688 118.837 9.17041 118.433 9.64502C118.037 10.1108 117.712 10.6338 117.457 11.2139C117.211 11.7852 117.04 12.3652 116.943 12.9541ZM140.692 15.6831C140.771 15.103 140.714 14.6196 140.521 14.2329C140.327 13.8374 140.046 13.5078 139.677 13.2441C139.308 12.9717 138.895 12.7476 138.438 12.5718C137.981 12.3872 137.524 12.2158 137.066 12.0576C136.407 11.8291 135.757 11.561 135.115 11.2534C134.483 10.9458 133.911 10.5767 133.401 10.146C132.892 9.70654 132.492 9.18799 132.202 8.59033C131.921 7.99268 131.811 7.29395 131.872 6.49414C131.942 5.60645 132.193 4.82861 132.624 4.16064C133.054 3.48389 133.604 2.92139 134.272 2.47314C134.94 2.0249 135.673 1.69092 136.473 1.47119C137.273 1.25146 138.082 1.15039 138.899 1.16797C140.033 1.19434 141.048 1.44922 141.944 1.93262C142.841 2.40723 143.54 3.0752 144.041 3.93652C144.542 4.79785 144.761 5.81299 144.7 6.98193L142.221 6.96875C142.283 6.2041 142.186 5.54932 141.931 5.00439C141.676 4.45068 141.281 4.02441 140.745 3.72559C140.217 3.42676 139.567 3.26855 138.794 3.25098C138.09 3.2334 137.418 3.33887 136.776 3.56738C136.144 3.7959 135.608 4.15186 135.168 4.63525C134.729 5.10986 134.461 5.7207 134.364 6.46777C134.294 6.98633 134.364 7.43018 134.575 7.79932C134.786 8.16846 135.076 8.48047 135.445 8.73535C135.823 8.99023 136.232 9.20557 136.671 9.38135C137.119 9.55713 137.546 9.71094 137.95 9.84277C138.653 10.0801 139.33 10.3613 139.98 10.6865C140.639 11.0029 141.219 11.3896 141.72 11.8467C142.23 12.2949 142.617 12.8311 142.88 13.4551C143.153 14.0791 143.254 14.813 143.184 15.6567C143.105 16.5708 142.845 17.3618 142.406 18.0298C141.966 18.6978 141.404 19.2471 140.718 19.6777C140.033 20.0996 139.281 20.4116 138.464 20.6138C137.647 20.8159 136.825 20.9082 135.999 20.8906C135.137 20.8818 134.32 20.7456 133.546 20.4819C132.782 20.2095 132.105 19.8228 131.516 19.3218C130.927 18.8208 130.475 18.2144 130.158 17.5024C129.842 16.7817 129.706 15.9644 129.75 15.0503L132.215 15.0635C132.171 15.6787 132.237 16.2192 132.413 16.6851C132.588 17.1509 132.852 17.542 133.204 17.8584C133.564 18.166 133.99 18.4033 134.483 18.5703C134.975 18.7285 135.515 18.812 136.104 18.8208C136.798 18.8384 137.475 18.7417 138.134 18.5308C138.802 18.3198 139.369 17.9814 139.835 17.5156C140.301 17.0498 140.587 16.439 140.692 15.6831ZM152.391 0.376953L148.871 20.627H146.472L149.992 0.376953H152.391ZM159.906 6.3623L152.839 12.9014L148.581 16.7378L148.871 13.9165L151.719 11.0161L156.794 6.3623H159.906ZM155.252 20.627L151.402 13.6924L152.918 11.6489L157.862 20.627H155.252ZM166.173 6.3623L163.695 20.627H161.309L163.787 6.3623H166.173ZM164.262 2.61816C164.262 2.20508 164.389 1.8623 164.644 1.58984C164.908 1.30859 165.246 1.16357 165.659 1.15479C166.072 1.146 166.411 1.27344 166.674 1.53711C166.947 1.80078 167.079 2.13477 167.07 2.53906C167.07 2.94336 166.934 3.28174 166.661 3.5542C166.397 3.81787 166.063 3.9541 165.659 3.96289C165.255 3.97168 164.921 3.85303 164.657 3.60693C164.393 3.35205 164.262 3.02246 164.262 2.61816ZM174.946 0.376953L171.426 20.627H169.039L172.546 0.376953H174.946ZM182.676 0.376953L179.156 20.627H176.77L180.277 0.376953H182.676ZM194.982 18.623L194.626 20.627H184.554L184.91 18.623H194.982ZM196.419 8.20801L185.187 20.627H183.644L183.974 18.7153L195.127 6.3623H196.735L196.419 8.20801ZM195.694 6.3623L195.338 8.37939H185.859L186.228 6.3623H195.694Z" fill="#004AAD"/>
</svg>
