<svg width="25" height="29" viewBox="0 0 25 29" fill="none" xmlns="http://www.w3.org/2000/svg">
<path d="M9.16953 4.16591C9.16953 3.50299 9.43287 2.86722 9.90163 2.39847C10.3704 1.92971 11.0062 1.66637 11.6691 1.66637C12.332 1.66637 12.9678 1.92971 13.4365 2.39847C13.9053 2.86722 14.1686 3.50299 14.1686 4.16591C14.1686 4.82884 13.9053 5.4646 13.4365 5.93336C12.9678 6.40212 12.332 6.66546 11.6691 6.66546C11.0062 6.66546 10.3704 6.40212 9.90163 5.93336C9.43287 5.4646 9.16953 4.82884 9.16953 4.16591ZM11.6691 0C11.039 8.83601e-05 10.4171 0.143102 9.8503 0.418278C9.28348 0.693453 8.78646 1.09362 8.39665 1.58866C8.00685 2.0837 7.73441 2.66071 7.59985 3.27626C7.46529 3.89181 7.47212 4.52987 7.61981 5.1424L4.12211 3.58602C3.41518 3.27232 2.61299 3.25039 1.88997 3.52499C1.16696 3.79959 0.581585 4.34852 0.261138 5.05242C-0.405408 6.52215 0.247807 8.24684 1.72254 8.90172L6.66998 11.1047V14.9156L3.54221 22.6559C3.26164 23.3711 3.27466 24.1682 3.57844 24.8739C3.88222 25.5796 4.45223 26.1369 5.16458 26.4247C5.87694 26.7125 6.67409 26.7075 7.38282 26.4109C8.09155 26.1143 8.65458 25.5499 8.94957 24.8405L9.09288 24.4856C8.72041 23.6284 8.48211 22.7191 8.38634 21.7894L7.40485 24.2173C7.34685 24.3742 7.25794 24.5179 7.14338 24.6398C7.02882 24.7618 6.89095 24.8594 6.73794 24.9271C6.58492 24.9948 6.41988 25.031 6.2526 25.0337C6.08532 25.0364 5.9192 25.0054 5.7641 24.9427C5.60899 24.88 5.46806 24.7868 5.34965 24.6686C5.23124 24.5504 5.13777 24.4096 5.07477 24.2547C5.01178 24.0997 4.98054 23.9336 4.98291 23.7663C4.98529 23.599 5.02123 23.4339 5.0886 23.2808L8.2147 15.5389C8.29461 15.3414 8.33591 15.1304 8.33635 14.9173V11.1047C8.33653 10.7824 8.24328 10.4671 8.0679 10.1967C7.89252 9.92642 7.64252 9.71275 7.34819 9.5816L2.40075 7.38033C2.25173 7.31437 2.11728 7.21949 2.0052 7.10119C1.89313 6.98288 1.80564 6.84351 1.74783 6.69114C1.69001 6.53878 1.66302 6.37645 1.6684 6.21357C1.67378 6.0507 1.71144 5.89051 1.7792 5.74229C1.91777 5.43873 2.17041 5.20202 2.48234 5.08348C2.79428 4.96495 3.14036 4.97414 3.44556 5.10908L9.97438 8.01522C10.5078 8.25275 11.0852 8.3755 11.6691 8.3755C12.253 8.3755 12.8304 8.25275 13.3638 8.01522L19.8926 5.10908C20.1978 4.97414 20.5439 4.96495 20.8558 5.08348C21.1677 5.20202 21.4204 5.43873 21.559 5.74229C21.6267 5.89051 21.6644 6.0507 21.6698 6.21357C21.6751 6.37645 21.6481 6.53878 21.5903 6.69114C21.5325 6.84351 21.445 6.98288 21.3329 7.10119C21.2209 7.21949 21.0864 7.31437 20.9374 7.38033L15.99 9.5816C15.6956 9.71275 15.4456 9.92642 15.2703 10.1967C15.0949 10.4671 15.0016 10.7824 15.0018 11.1047V12.0128C15.5465 11.8586 16.1044 11.7554 16.6682 11.7046V11.1047L21.6139 8.90172C21.9637 8.74619 22.2792 8.52295 22.5422 8.24486C22.8053 7.96678 23.0107 7.63937 23.1465 7.28151C23.2824 6.92365 23.346 6.54243 23.3338 6.15985C23.3216 5.77726 23.2338 5.40088 23.0753 5.05242C22.7549 4.34852 22.1695 3.79959 21.4465 3.52499C20.7235 3.25039 19.9213 3.27232 19.2144 3.58602L15.72 5.1424C15.8677 4.52987 15.8745 3.89181 15.74 3.27626C15.6054 2.66071 15.333 2.0837 14.9432 1.58866C14.5534 1.09362 14.0563 0.693453 13.4895 0.418278C12.9227 0.143102 12.3008 8.83601e-05 11.6707 0H11.6691ZM25 20.8329C25 22.8217 24.21 24.729 22.8037 26.1352C21.3974 27.5415 19.4901 28.3315 17.5014 28.3315C15.5126 28.3315 13.6053 27.5415 12.199 26.1352C10.7927 24.729 10.0027 22.8217 10.0027 20.8329C10.0027 18.8441 10.7927 16.9368 12.199 15.5306C13.6053 14.1243 15.5126 13.3343 17.5014 13.3343C19.4901 13.3343 21.3974 14.1243 22.8037 15.5306C24.21 16.9368 25 18.8441 25 20.8329ZM21.424 17.7435C21.3466 17.6659 21.2546 17.6043 21.1534 17.5623C21.0522 17.5203 20.9437 17.4987 20.8341 17.4987C20.7245 17.4987 20.616 17.5203 20.5148 17.5623C20.4135 17.6043 20.3216 17.6659 20.2442 17.7435L15.835 22.1543L14.7585 21.0762C14.6021 20.9197 14.3899 20.8319 14.1686 20.8319C13.9474 20.8319 13.7352 20.9197 13.5787 21.0762C13.4223 21.2326 13.3344 21.4448 13.3344 21.6661C13.3344 21.8873 13.4223 22.0995 13.5787 22.256L15.2451 23.9223C15.3225 23.9999 15.4144 24.0615 15.5157 24.1035C15.6169 24.1455 15.7254 24.1671 15.835 24.1671C15.9446 24.1671 16.0531 24.1455 16.1543 24.1035C16.2555 24.0615 16.3475 23.9999 16.4249 23.9223L21.424 18.9232C21.5016 18.8459 21.5631 18.7539 21.6051 18.6527C21.6471 18.5515 21.6688 18.4429 21.6688 18.3334C21.6688 18.2238 21.6471 18.1152 21.6051 18.014C21.5631 17.9128 21.5016 17.8209 21.424 17.7435Z" fill="#004AAD"/>
</svg>
