<svg width="21" height="23" viewBox="0 0 21 23" fill="none" xmlns="http://www.w3.org/2000/svg">
<path d="M17.9212 14.4664L12.5247 19.7553M17.9212 14.4664C17.2186 13.7568 16.2636 13.3542 15.265 13.3468C14.2664 13.3393 13.3054 13.7276 12.5923 14.4266C11.8791 15.1257 11.4718 16.0786 11.4593 17.0772C11.4468 18.0757 11.8302 19.0386 12.5256 19.7553L17.9212 14.4664ZM17.9212 14.4664C18.6167 15.1831 19 16.1459 18.9875 17.1445C18.975 18.143 18.5677 19.096 17.8545 19.7951C17.1414 20.4941 16.1805 20.8823 15.1819 20.8749C14.1833 20.8674 13.2282 20.4649 12.5256 19.7553L17.9212 14.4664Z" stroke="#004AAD" stroke-width="3" stroke-linecap="round" stroke-linejoin="round"/>
<path d="M7.66667 20.8889H5.77778C5.27681 20.8889 4.79637 20.6899 4.44213 20.3356C4.0879 19.9814 3.88889 19.501 3.88889 19V10.6719C3.88914 10.56 3.85628 10.4506 3.79445 10.3574L2.09445 7.80833C2.03261 7.71512 1.99975 7.60569 2 7.49383V2.56667C2 2.41638 2.0597 2.27224 2.16597 2.16597C2.27224 2.0597 2.41638 2 2.56667 2H4.26667C4.41696 2 4.56109 2.0597 4.66736 2.16597C4.77363 2.27224 4.83333 2.41638 4.83333 2.56667V4.26667C4.83333 4.41696 4.89304 4.56109 4.99931 4.66736C5.10558 4.77363 5.24971 4.83333 5.4 4.83333H8.04444C8.19473 4.83333 8.33887 4.77363 8.44514 4.66736C8.55141 4.56109 8.61111 4.41696 8.61111 4.26667V2.56667C8.61111 2.41638 8.67081 2.27224 8.77708 2.16597C8.88335 2.0597 9.02749 2 9.17778 2H11.8222C11.9725 2 12.1166 2.0597 12.2229 2.16597C12.3292 2.27224 12.3889 2.41638 12.3889 2.56667V4.26667C12.3889 4.41696 12.4486 4.56109 12.5549 4.66736C12.6611 4.77363 12.8053 4.83333 12.9556 4.83333H15.6C15.7503 4.83333 15.8944 4.77363 16.0007 4.66736C16.107 4.56109 16.1667 4.41696 16.1667 4.26667V2.56667C16.1667 2.49225 16.1813 2.41856 16.2098 2.34981C16.2383 2.28106 16.28 2.21859 16.3326 2.16597C16.3853 2.11335 16.4477 2.07161 16.5165 2.04313C16.5852 2.01466 16.6589 2 16.7333 2H18.4333C18.5836 2 18.7278 2.0597 18.834 2.16597C18.9403 2.27224 19 2.41638 19 2.56667V7.49478C19.0002 7.60663 18.9674 7.71606 18.9056 7.80928L18.0556 9.08333" stroke="#004AAD" stroke-width="3" stroke-linecap="round" stroke-linejoin="round"/>
</svg>
