<svg width="24" height="21" viewBox="0 0 24 21" fill="none" xmlns="http://www.w3.org/2000/svg">
<path d="M24 8.08917V17.8724C24 19.0655 22.92 20.0416 21.6 20.0416H2.4C1.08 20.0416 0 19.0655 0 17.8724V4.85702C0 3.66394 1.08 2.68779 2.4 2.68779H14.52C14.448 3.03486 14.4 3.40363 14.4 3.7724C14.4 5.37763 15.18 6.79848 16.404 7.79632L12 10.2801L2.4 4.85702V7.02625L12 12.4493L18.36 8.8484C19.008 9.06532 19.68 9.19548 20.4 9.19548C21.756 9.19548 22.992 8.77248 24 8.08917ZM16.8 3.7724C16.8 5.57286 18.408 7.02625 20.4 7.02625C22.392 7.02625 24 5.57286 24 3.7724C24 1.97194 22.392 0.518555 20.4 0.518555C18.408 0.518555 16.8 1.97194 16.8 3.7724Z" fill="#004AAD"/>
</svg>
