<svg width="24" height="20" viewBox="0 0 24 20" fill="none" xmlns="http://www.w3.org/2000/svg">
<path d="M7.80004 13.092C7.71042 13.092 7.62079 13.105 7.53529 13.1325C7.04929 13.2891 6.53817 13.3895 6.00005 13.3895C5.46192 13.3895 4.9508 13.2891 4.46442 13.1325C4.37893 13.105 4.28968 13.092 4.20005 13.092C1.87281 13.092 -0.0123144 14.9695 6.05803e-05 17.2807C0.00531057 18.2574 0.814934 19.0429 1.80006 19.0429H10.2C11.1852 19.0429 11.9948 18.2574 12 17.2807C12.0124 14.9695 10.1273 13.092 7.80004 13.092ZM6.00005 11.9018C7.98829 11.9018 9.60004 10.3033 9.60004 8.33127C9.60004 6.35929 7.98829 4.76073 6.00005 4.76073C4.0118 4.76073 2.40005 6.35929 2.40005 8.33127C2.40005 10.3033 4.0118 11.9018 6.00005 11.9018ZM22.2 0H7.80004C6.80742 0 6.00005 0.827548 6.00005 1.84441V3.57055C6.87829 3.57055 7.69129 3.82272 8.40004 4.23259V2.38036H21.6V13.092H19.2V10.7116H14.4V13.092H11.541C12.2573 13.7128 12.783 14.5325 13.0294 15.4724H22.2C23.1926 15.4724 24 14.6448 24 13.628V1.84441C24 0.827548 23.1926 0 22.2 0Z" fill="#004AAD"/>
</svg>
